<svg id="Layer_1" data-name="Layer 1" xmlns="http://www.w3.org/2000/svg" viewBox="0 0 187.12 238.46"><defs><style>.cls-1{font-size:53.9px;font-family:Gadugi-Bold, Gadugi;font-weight:700;}.cls-1,.cls-3{fill:#231f20;}.cls-2{font-family:Gadugi;font-weight:400;}</style></defs><text class="cls-1" transform="translate(0 225.59)">Afri<tspan class="cls-2" x="95.32" y="0">Dev</tspan></text><path class="cls-3" d="M171.85,90.64,94.11,168.39a2.82,2.82,0,0,1-4,0L65,143.28a2.82,2.82,0,0,1,0-4L86.68,117.6a.25.25,0,0,1,.42.14c.58,3.05,2.28,4.57,4.19,11,2.61,8.69,1.16,11.59,3.73,13.13,3.56,2.15,11.16-.58,13.53-5.19,1.38-2.69.82-5.75,3.45-7.56,1.38-.95,1-1.47,1.8-2.57,1.34-1.87.72-3,1.47-5.55.91-3.08,3.23-4.07,5.07-6.92,2.61-4.07-1.6-6.65-.06-13.24.9-3.82,3.2-4.31,7.41-9.88a48.77,48.77,0,0,0,6.27-11,1.51,1.51,0,0,0-1.73-2l-4,.94a1.26,1.26,0,0,1-1.17-.33,59.43,59.43,0,0,1-14.39-22.93.23.23,0,0,1,.06-.25L124.6,43.38a2.81,2.81,0,0,1,4,0l18,18,25.31,25.32A2.81,2.81,0,0,1,171.85,90.64Z"/><path class="cls-3" d="M127.05,29.85,106.84,50.06a.26.26,0,0,1-.2.07,23.2,23.2,0,0,1-4.21-.74,22.57,22.57,0,0,1-3.11-1.06,1.55,1.55,0,0,0-2.06.9,2.55,2.55,0,0,1-1.45,1.69c-1.3.44-2.15-1.18-5.15-2.47-3.32-1.42-5.24-.71-5.89-2-.77-1.55,1.48-3.3,1-4.36-.57-1.33-5.22-1.31-20.31,2.88a1.24,1.24,0,0,0-.45.21A35.54,35.54,0,0,0,54.75,58.09c-1.74,3.74-2.22,7.3-3.19,14.42a7.07,7.07,0,0,0,.37,4c.7,1.56,1.77,2,3.48,3.78,2.05,2.12,1.77,2.77,3.05,4.06,2.76,2.77,7.66,3.4,11.27,2.63,3.9-.85,5-3,7.85-2.4a7.08,7.08,0,0,1,3.84,2.54c1.75,2.1,1.62,4.11,2.19,6.86,1.27,6.06,4,6.09,4.87,10.62a.28.28,0,0,1-.07.23L67.12,126.11a2.57,2.57,0,0,1-3.64,0L19.86,82.48a2.57,2.57,0,0,1,0-3.64L98,.75a2.58,2.58,0,0,1,3.64,0l25.46,25.47A2.55,2.55,0,0,1,127.05,29.85Z"/></svg>